<?xml version="1.0" standalone="no"?>
<!DOCTYPE svg PUBLIC "-//W3C//DTD SVG 20010904//EN"
 "http://www.w3.org/TR/2001/REC-SVG-20010904/DTD/svg10.dtd">
<svg version="1.0" xmlns="http://www.w3.org/2000/svg"
 width="384.000000pt" height="384.000000pt" viewBox="0 0 384.000000 384.000000"
 preserveAspectRatio="xMidYMid meet">
<metadata>
Created by potrace 1.11, written by Peter Selinger 2001-2013
</metadata>
<g transform="translate(0.000000,384.000000) scale(0.100000,-0.100000)"
fill="#000000" stroke="none">
<path d="M1585 3833 c-178 -21 -268 -40 -398 -85 -356 -122 -671 -367 -880
-683 -163 -248 -261 -536 -274 -806 -4 -89 -3 -118 7 -124 20 -12 199 -18 245
-8 l40 9 16 124 c27 211 59 329 133 486 81 171 206 327 382 478 190 162 447
265 747 299 79 9 122 19 128 28 5 8 9 66 9 129 0 163 -8 171 -155 153z"/>
<path d="M1580 3359 c-169 -20 -368 -96 -529 -203 -276 -183 -481 -495 -536
-814 -21 -119 -20 -198 3 -207 29 -12 156 -18 215 -11 l55 7 12 72 c67 399
285 685 606 795 64 22 247 62 282 62 44 0 52 23 52 155 0 166 4 163 -160 144z"/>
<path d="M2110 3088 c0 -33 -81 -81 -120 -71 -21 6 -21 4 -10 -18 7 -13 23
-37 35 -54 13 -16 28 -48 35 -70 7 -22 24 -65 38 -95 14 -30 27 -64 29 -74 2
-11 10 -33 18 -49 20 -40 19 -67 -2 -67 -12 0 -14 -3 -6 -8 8 -5 7 -12 -4 -27
-12 -15 -14 -16 -10 -3 4 12 2 15 -8 11 -8 -3 -12 -10 -9 -15 4 -6 -4 -19 -17
-29 l-24 -18 25 5 c21 5 22 4 8 -6 -10 -6 -18 -16 -18 -23 0 -7 4 -6 11 3 8
12 9 12 7 -4 -3 -17 3 -20 42 -20 25 -1 48 -5 52 -11 11 -14 19 0 12 19 -5 14
-15 17 -48 13 -40 -5 -42 -4 -41 23 0 15 4 26 8 23 4 -3 14 1 22 7 8 7 15 9
16 4 0 -5 4 0 8 10 7 18 8 18 14 2 5 -12 0 -19 -18 -26 -14 -5 -25 -12 -25
-16 0 -3 7 -4 15 0 8 3 15 1 15 -4 0 -6 4 -10 10 -10 5 0 7 7 4 15 -4 8 -2 15
2 15 5 0 15 -17 22 -37 20 -59 22 -73 10 -70 -6 1 -13 -4 -16 -12 -3 -9 0 -11
8 -6 9 5 11 4 6 -3 -10 -17 -26 -15 -26 3 0 8 -5 15 -11 15 -5 0 -7 -4 -4 -10
3 -6 -1 -7 -9 -4 -9 3 -16 1 -16 -6 0 -6 -4 -8 -10 -5 -5 3 -10 13 -10 21 0
11 9 13 35 11 20 -3 38 0 41 4 4 7 -33 12 -62 8 -4 0 -11 5 -15 13 -7 10 -9
10 -9 -1 0 -9 -13 -2 -35 19 -27 26 -35 30 -35 16 0 -9 -4 -14 -10 -11 -15 9
-12 -4 5 -22 8 -8 13 -19 10 -24 -4 -5 0 -9 7 -9 10 0 10 -2 0 -9 -17 -11 -17
-21 0 -33 9 -7 7 -8 -7 -3 -35 13 -70 11 -70 -4 0 -8 8 -15 18 -17 29 -4 34
-14 15 -28 -10 -7 -14 -17 -10 -21 4 -5 1 -5 -6 -1 -7 4 -10 12 -7 17 4 5 3
14 -1 20 -4 8 -9 7 -15 -2 -6 -9 -9 -10 -9 -2 0 7 -15 10 -42 8 -24 -1 -47 0
-53 3 -5 4 -14 7 -20 8 -5 1 -18 5 -28 9 -13 6 -16 4 -11 -10 6 -15 4 -16 -13
-7 -11 6 -23 8 -27 5 -3 -3 -6 -1 -6 5 0 7 -8 12 -17 12 -14 -1 -11 -6 11 -25
17 -13 34 -21 38 -19 10 6 68 -17 68 -27 0 -3 -11 -4 -25 -1 -14 2 -23 8 -20
12 2 4 -7 5 -20 2 -14 -2 -22 -8 -19 -13 3 -5 -2 -6 -10 -3 -9 3 -16 10 -16
16 0 5 5 6 10 3 6 -3 10 -2 10 3 0 15 -28 22 -34 9 -2 -7 -5 -4 -5 6 -1 21
-41 24 -41 2 0 -8 -3 -14 -7 -14 -21 3 -31 -3 -37 -23 -5 -18 -8 -20 -15 -9
-10 16 -26 -3 -16 -19 3 -5 0 -10 -8 -10 -8 0 -26 -11 -41 -25 -15 -14 -34
-25 -42 -25 -8 0 -13 -4 -10 -9 4 -5 0 -12 -6 -15 -7 -3 -3 -3 10 0 14 3 30 0
40 -9 12 -11 37 -15 85 -15 65 1 67 2 51 19 -16 18 -18 18 -31 1 -14 -16 -14
-16 -9 1 3 11 0 17 -10 17 -8 0 -12 -4 -9 -10 3 -5 2 -10 -3 -10 -6 0 -12 7
-16 15 -3 8 -13 15 -21 15 -9 0 -13 -5 -10 -10 4 -6 11 -8 16 -5 5 4 9 -1 9
-10 0 -14 -3 -14 -30 0 -29 15 -33 45 -5 45 7 0 21 3 31 7 12 4 15 3 10 -5 -5
-8 -2 -10 8 -6 9 3 24 3 34 -2 9 -4 19 -8 22 -8 12 -2 59 -44 55 -48 -3 -3 1
-5 8 -5 7 0 25 -3 40 -6 25 -7 26 -6 23 25 -2 18 1 37 8 41 7 6 5 7 -6 3 -10
-3 -22 2 -27 12 -6 9 -11 12 -11 5 0 -6 5 -15 10 -18 6 -3 10 -17 10 -30 0
-17 -5 -23 -20 -22 -10 1 -17 3 -15 5 2 2 0 15 -6 29 -6 16 -6 22 1 18 6 -3
10 -1 10 6 0 6 -8 9 -20 6 -26 -7 -26 5 1 21 18 11 27 9 72 -16 28 -16 62 -44
76 -63 l26 -34 -27 18 c-16 10 -28 14 -29 10 0 -5 -5 3 -10 17 -8 20 -12 22
-19 10 -13 -20 -13 -53 0 -45 5 3 7 13 4 23 -3 10 0 9 6 -4 8 -13 29 -25 63
-33 73 -17 156 -32 197 -36 19 -1 51 -9 70 -17 l35 -15 -30 -16 c-19 -10 -24
-16 -13 -17 9 0 19 4 23 9 7 12 44 6 59 -9 8 -8 6 -14 -4 -20 -12 -8 -11 -10
5 -8 11 2 20 -1 20 -7 0 -5 -4 -9 -11 -7 -6 1 -11 -11 -11 -29 0 -28 3 -30 28
-25 19 3 29 1 33 -10 9 -23 8 -24 -13 -24 -10 0 -23 -6 -30 -13 -6 -7 -25 -13
-43 -12 -20 1 -41 -5 -52 -17 -19 -18 -19 -18 0 -18 18 -1 18 -1 1 -11 -13 -7
-22 -7 -31 0 -21 18 -154 -78 -139 -102 2 -4 0 -6 -6 -5 -6 2 -35 -21 -66 -51
-46 -46 -56 -52 -70 -41 -8 7 -15 9 -15 5 0 -4 8 -13 17 -20 15 -11 15 -13 -5
-19 -12 -4 -20 -11 -17 -16 3 -5 -16 -3 -42 5 -26 8 -49 15 -50 15 -2 0 -3 4
-3 10 0 6 9 6 26 0 27 -11 91 -14 82 -5 -3 3 -18 8 -34 11 -35 6 -70 25 -39
21 11 -1 25 -6 32 -10 6 -4 14 -3 18 3 3 5 1 10 -5 10 -6 0 -8 4 -5 10 4 6 -1
7 -12 4 -16 -5 -16 -4 1 10 11 9 26 16 33 16 7 0 13 4 13 9 0 5 14 7 30 6 17
-1 33 1 36 6 5 8 -10 13 -29 10 -4 -1 -21 6 -37 14 -26 13 -30 14 -30 1 0 -8
-5 -18 -12 -22 -6 -4 -8 -3 -5 2 3 6 -8 16 -24 23 -16 7 -27 17 -23 22 3 5 9
7 14 4 5 -3 12 0 15 6 4 5 14 8 22 5 8 -3 11 -1 8 4 -3 6 4 10 17 10 13 1 34
7 48 15 19 10 28 11 39 2 12 -10 13 -9 6 2 -6 11 -4 13 11 7 16 -6 16 -4 -4
17 -30 31 -28 38 8 26 17 -6 30 -15 30 -21 0 -5 -5 -6 -12 -2 -7 4 -8 3 -4 -5
6 -9 11 -9 22 0 12 10 11 14 -8 28 -32 22 -68 26 -68 7 0 -8 5 -18 10 -21 18
-11 11 -24 -11 -20 -30 6 -32 10 -18 37 11 21 11 22 -4 10 -11 -10 -21 -11
-33 -4 -12 7 -30 4 -60 -8 -23 -10 -45 -16 -48 -13 -3 4 -6 1 -6 -6 0 -8 7
-11 15 -7 9 3 15 0 15 -8 0 -9 7 -12 19 -9 11 3 21 -2 24 -11 7 -18 -8 -22
-18 -6 -4 6 -10 8 -15 5 -5 -3 -11 -1 -15 5 -3 5 -11 10 -17 10 -6 0 -3 -9 7
-19 16 -19 16 -20 -4 -18 -12 1 -22 7 -22 14 -3 29 -4 33 -11 33 -5 0 -11 0
-14 0 -4 0 -1 -7 6 -15 10 -12 10 -15 -1 -15 -11 0 -11 -3 1 -11 13 -9 13 -10
0 -6 -8 2 -15 10 -15 17 0 16 -33 29 -61 24 -13 -2 -24 2 -28 11 -3 8 -13 15
-23 15 -15 0 -16 -2 -3 -10 12 -8 11 -10 -6 -10 -24 0 -58 -33 -47 -45 5 -4 3
-5 -3 -2 -7 4 -16 1 -22 -6 -10 -13 -36 -84 -38 -107 -8 -80 -7 -87 17 -148
12 -32 11 -69 -3 -78 -6 -4 -8 -3 -4 4 3 6 2 13 -3 17 -6 3 -8 -4 -5 -17 3
-13 7 -45 8 -73 4 -66 12 -91 50 -143 22 -31 31 -55 31 -86 1 -23 5 -48 10
-55 6 -10 4 -12 -5 -6 -25 15 25 -57 68 -98 23 -23 42 -51 42 -63 0 -38 29
-120 60 -166 17 -26 59 -70 94 -98 50 -41 64 -58 74 -95 7 -25 28 -63 49 -86
52 -57 148 -120 193 -126 33 -5 39 -10 49 -43 6 -21 25 -50 43 -65 37 -31 186
-103 231 -112 18 -3 46 -18 62 -34 53 -50 132 -70 296 -76 170 -7 207 -2 249
33 25 22 42 27 98 28 74 3 118 23 203 93 34 28 44 43 40 57 -4 9 -11 17 -16
16 -6 0 -11 7 -13 17 -3 15 -1 16 7 3 10 -13 11 -13 12 0 1 8 1 18 0 22 0 4 5
5 13 2 12 -5 65 47 67 67 1 5 3 14 4 19 1 6 3 17 4 25 0 8 8 15 17 15 8 0 12
5 9 10 -3 6 -2 10 3 10 6 0 15 14 21 30 12 36 46 43 36 8 -4 -17 -1 -15 12 7
9 17 17 45 17 63 0 17 1 32 3 32 1 0 9 -16 17 -35 8 -19 19 -35 24 -35 11 0
31 37 37 68 2 13 7 33 11 45 l6 20 -36 -21 c-48 -28 -57 -28 -43 2 7 13 16 22
21 19 5 -4 6 -1 2 6 -5 7 -1 17 9 24 9 7 17 20 18 28 2 9 11 28 21 44 11 17
13 25 5 20 -11 -6 -12 -5 -1 6 6 7 12 24 12 37 0 13 4 21 8 18 4 -2 8 26 9 62
1 37 7 68 12 70 7 2 6 13 0 30 -7 18 -7 28 0 30 6 2 11 12 11 23 0 10 9 28 20
39 24 24 25 36 4 44 -10 4 -26 -6 -47 -29 -29 -33 -63 -51 -37 -20 7 9 10 18
6 22 -3 3 0 16 8 27 7 12 12 36 11 54 -2 24 3 35 17 43 13 7 17 14 10 21 -11
11 -4 50 7 43 9 -5 11 12 12 77 0 37 3 46 14 41 9 -3 15 1 16 11 2 19 3 24 11
51 3 11 9 38 12 60 l6 40 -15 -34 c-25 -55 -75 -81 -89 -45 -3 8 -2 12 4 9 6
-3 10 -1 10 4 0 6 5 11 11 11 5 0 7 -5 3 -12 -4 -7 -3 -8 4 -4 7 4 12 16 12
26 0 10 4 21 9 25 6 3 9 14 8 25 -1 20 -17 17 -17 -4 0 -7 -6 -21 -14 -31 -12
-17 -13 -13 -11 31 2 27 6 56 9 64 6 17 4 40 -7 57 -4 6 -3 15 3 18 6 4 8 16
4 27 -4 14 -2 18 5 14 8 -5 8 1 0 21 -6 15 -12 35 -14 43 -2 8 -6 27 -10 41
-8 33 5 42 39 29 24 -9 26 -8 22 13 -2 12 -15 51 -29 87 l-25 65 -6 -40 c-4
-22 -8 -46 -9 -54 -1 -8 -8 -16 -15 -19 -7 -2 -10 2 -7 10 3 8 0 15 -7 15 -8
0 -13 -14 -13 -39 0 -21 3 -38 8 -38 13 0 7 -27 -10 -41 -15 -12 -16 -12 -8 1
8 13 6 13 -7 2 -15 -12 -16 -9 -13 32 2 25 0 46 -4 46 -4 0 -5 16 -3 35 3 21
0 35 -7 35 -6 0 -10 3 -10 8 3 18 -2 32 -17 47 -9 9 -13 19 -10 23 13 12 41
-14 63 -59 13 -24 23 -42 24 -39 7 28 4 130 -4 130 -5 0 -4 7 4 16 10 13 10
17 0 24 -8 4 -10 13 -6 21 6 9 4 11 -8 6 -11 -4 -14 -2 -11 8 3 7 -3 22 -13
32 -11 11 -22 27 -26 36 -6 16 -38 25 -36 10 4 -22 -4 -28 -34 -28 -17 0 -38
4 -44 8 -7 5 -13 5 -13 1 0 -4 -8 0 -18 9 -10 10 -22 14 -26 10 -4 -5 -7 -3
-6 2 5 24 -2 33 -30 39 -16 3 -30 10 -30 16 0 5 6 9 13 7 6 -1 12 5 12 13 0
25 -43 24 -66 -2 -11 -13 -17 -16 -13 -8 4 8 14 23 22 33 10 11 11 17 4 17 -7
0 -12 5 -12 10 0 14 27 12 33 -2 3 -9 25 -12 68 -11 45 1 74 -4 101 -18 21
-11 38 -17 38 -14 0 17 -22 45 -35 45 -8 0 -15 4 -15 9 0 13 -47 22 -128 26
-37 2 -71 4 -75 4 -5 1 -6 5 -3 10 8 12 -47 9 -56 -4 -5 -6 -8 -2 -8 8 0 10
-4 15 -10 12 -15 -10 -12 2 6 20 14 13 14 19 4 28 -10 9 -11 9 -5 -3 6 -12 5
-13 -6 -2 -16 15 -46 16 -55 1 -4 -8 1 -9 17 -5 17 4 15 2 -6 -8 -31 -15 -47
-4 -26 17 14 14 14 37 0 37 -6 0 -8 -7 -5 -17 4 -10 4 -14 0 -10 -4 4 -13 2
-21 -5 -10 -8 -12 -8 -8 4 4 9 0 15 -10 15 -8 0 -15 -4 -15 -9 0 -4 -4 -8 -9
-8 -5 0 -8 7 -7 16 0 9 -6 19 -14 21 -12 4 -12 3 -2 -5 11 -7 9 -10 -7 -15
-25 -6 -40 11 -20 24 10 6 11 11 3 19 -17 17 -48 -23 -36 -47 9 -15 7 -19 -10
-20 -16 -2 -17 1 -7 13 10 12 9 13 -7 7 -16 -6 -15 -3 4 24 25 36 22 39 -33
39 -26 -1 -39 -5 -38 -13 2 -7 -4 -10 -12 -7 -9 4 -15 0 -15 -9 0 -9 -4 -18
-9 -22 -6 -3 -8 4 -6 15 6 31 -22 25 -39 -9 -15 -28 -41 -46 -60 -42 -5 1 -4
-4 3 -13 9 -11 9 -16 0 -22 -8 -4 -9 -3 -5 4 4 7 3 12 -2 12 -6 0 -13 -7 -16
-16 -3 -8 -11 -12 -17 -9 -6 4 -8 13 -5 21 3 8 -1 15 -9 15 -8 1 -19 3 -25 4
-5 1 -16 3 -22 4 -10 1 -10 3 0 9 8 6 1 9 -19 9 -19 0 -35 6 -41 16 -5 10 -17
17 -26 17 -10 0 -23 5 -30 12 -16 16 -28 2 -13 -16 10 -12 8 -17 -8 -26 -14
-7 -21 -7 -21 0 0 5 7 10 16 10 8 0 13 4 10 9 -7 11 -66 20 -66 10 0 -4 -11
-20 -25 -35 -25 -27 -36 -72 -13 -58 6 4 8 3 4 -4 -3 -6 -15 -10 -26 -9 -12 1
-16 5 -10 12 4 5 10 26 12 45 2 28 7 34 22 32 11 -2 15 1 11 7 -3 6 -1 11 5
11 6 0 10 8 8 17 -2 10 2 18 7 18 18 1 35 16 35 32 0 13 -4 13 -27 -3 -24 -15
-26 -15 -15 -1 8 9 22 19 33 22 23 8 25 21 4 29 -10 3 -23 -6 -38 -29 -14 -22
-30 -35 -44 -35 -12 0 -25 -4 -28 -10 -3 -6 1 -7 9 -4 9 3 16 2 16 -4 0 -6
-11 -9 -25 -7 -14 1 -25 -2 -25 -6 0 -5 -5 -9 -10 -9 -6 0 -9 3 -8 8 3 12 -55
121 -62 117 -4 -2 -7 2 -7 9 0 26 -136 295 -146 289 -6 -3 -8 -2 -4 3 3 5 -1
36 -8 68 -14 58 -25 83 -25 54z m14 -70 c-7 -11 -32 -10 -38 1 -4 5 3 7 14 4
16 -4 19 -2 14 13 -5 15 -4 16 4 4 6 -8 8 -18 6 -22z m-4 -68 c-12 -8 -11 -10
7 -10 16 0 21 -4 17 -15 -4 -8 -11 -15 -17 -15 -6 0 -8 3 -4 6 3 4 -3 14 -14
23 -21 17 -21 17 2 18 19 2 20 0 9 -7z m58 -65 c4 -4 1 -5 -5 -1 -7 4 -13 3
-13 -2 0 -5 -7 -9 -15 -9 -8 0 -15 5 -15 10 0 5 -8 3 -17 -4 -16 -13 -17 -12
-5 3 13 17 55 19 70 3z m-2 -30 c-3 -10 1 -15 12 -15 15 0 15 -2 2 -10 -13 -8
-12 -10 3 -10 20 0 23 -16 5 -23 -9 -4 -8 -6 2 -6 9 -1 23 -14 33 -30 14 -24
14 -31 3 -40 -7 -6 -16 -8 -19 -4 -4 3 -7 3 -7 -1 0 -3 11 -11 24 -16 13 -5
28 -22 34 -40 9 -24 8 -29 -1 -25 -7 4 1 -3 16 -16 20 -15 25 -24 16 -29 -7
-5 -19 -6 -26 -3 -12 5 -12 7 -1 14 10 7 9 9 -4 9 -10 0 -18 6 -18 14 0 19
-29 48 -41 40 -5 -3 -6 -11 -3 -17 4 -7 3 -9 -1 -4 -5 4 -10 18 -12 30 -2 17
-1 19 7 7 6 -9 10 -10 10 -3 0 6 -4 15 -10 18 -5 3 -15 16 -22 28 -9 19 -9 20
3 10 11 -9 14 -6 15 17 1 21 -3 27 -14 22 -11 -4 -14 -1 -9 11 3 9 2 17 -3 17
-9 0 -11 46 -3 63 7 13 15 7 9 -8z m-31 -15 c4 -6 -1 -7 -12 -3 -16 6 -17 5
-3 -13 14 -18 14 -18 -2 -5 -10 7 -15 17 -12 22 7 12 21 11 29 -1z m365 -210
c0 -5 -5 -10 -11 -10 -5 0 -7 5 -4 10 3 6 8 10 11 10 2 0 4 -4 4 -10z m-205
-50 c17 7 21 4 23 -16 1 -13 -4 -24 -11 -24 -8 0 -8 -3 2 -9 8 -5 21 -7 30 -4
14 4 14 3 1 -7 -12 -9 -12 -13 -2 -17 7 -3 19 -21 27 -40 18 -42 18 -46 5 -38
-5 3 -10 1 -10 -5 0 -6 -5 -8 -12 -4 -7 5 -8 3 -3 -5 4 -7 16 -10 27 -8 16 5
17 3 7 -9 -10 -12 -10 -15 2 -12 8 2 15 -4 15 -12 1 -8 2 -21 3 -27 0 -7 7
-13 14 -13 6 0 19 -15 28 -33 9 -17 21 -31 25 -30 5 1 9 -12 10 -28 1 -15 -3
-26 -7 -23 -5 3 -9 -3 -10 -13 0 -11 -3 -13 -6 -5 -4 10 -8 10 -21 0 -16 -12
-16 -11 -2 6 14 18 13 19 -2 13 -10 -3 -17 -3 -17 1 4 27 -3 43 -18 40 -20 -3
-23 13 -11 56 l8 29 -21 -21 c-22 -25 -38 -30 -19 -7 7 9 8 15 2 15 -5 0 -8
15 -5 34 3 24 0 35 -11 39 -9 4 -16 12 -16 19 0 7 -9 19 -20 26 -11 7 -20 18
-20 25 0 8 4 7 10 -3 9 -14 14 -7 11 13 -1 5 3 6 9 2 6 -3 8 -10 5 -14 -9 -16
19 -41 35 -31 13 8 13 11 1 22 -9 8 -11 9 -7 1 3 -6 1 -15 -5 -19 -8 -5 -11 1
-8 17 6 31 -23 63 -41 46 -9 -9 -11 -7 -6 10 4 12 2 24 -5 29 -7 4 -9 3 -6 -3
12 -19 -23 -9 -40 11 -18 21 -18 21 5 2 15 -13 22 -15 22 -6 0 7 -8 19 -17 26
-16 13 -15 13 7 5 14 -5 34 -5 45 -1z m678 -37 c-7 -2 -19 -2 -25 0 -7 3 -2 5
12 5 14 0 19 -2 13 -5z m-56 -28 c0 -8 -5 -11 -10 -8 -6 4 -8 0 -4 -9 4 -11
-1 -18 -14 -21 -20 -5 -18 4 9 36 18 21 19 21 19 2z m-412 -33 c-3 -3 -11 0
-18 7 -9 10 -8 11 6 5 10 -3 15 -9 12 -12z m78 5 c3 -8 -1 -14 -9 -14 -15 0
-18 9 -7 20 9 9 10 9 16 -6z m44 -9 c-1 -6 4 -13 11 -15 6 -3 12 0 12 6 0 6 6
11 13 11 6 -1 2 -9 -10 -19 l-22 -18 22 -11 c21 -10 21 -11 -6 -9 -16 1 -33 7
-39 15 -6 7 -7 12 -2 11 24 -4 26 3 5 25 -23 24 -23 25 -3 19 12 -3 20 -10 19
-15z m307 -4 c3 -8 2 -12 -4 -9 -6 3 -10 10 -10 16 0 14 7 11 14 -7z m-469
-14 c3 -5 1 -10 -4 -10 -6 0 -11 5 -11 10 0 6 2 10 4 10 3 0 8 -4 11 -10z
m220 1 c-3 -5 -1 -12 5 -16 5 -3 10 -13 10 -21 0 -14 -2 -13 -16 0 -8 9 -21
16 -27 16 -7 0 -3 7 7 15 23 17 30 19 21 6z m29 -7 c3 -8 2 -12 -4 -9 -6 3
-10 10 -10 16 0 14 7 11 14 -7z m182 -9 c1 -14 -2 -25 -7 -25 -5 0 -8 -5 -6
-11 1 -6 -4 -13 -11 -14 -7 -2 -8 -1 -3 1 6 3 7 12 4 20 -3 8 0 14 7 14 6 0 8
5 5 10 -5 8 1 30 8 30 1 0 3 -11 3 -25z m212 16 c12 -1 21 -7 20 -13 -2 -7 2
-12 9 -11 14 3 9 -36 -7 -51 -7 -7 -11 -7 -10 -1 6 30 -2 38 -14 15 -8 -14
-12 -29 -8 -35 3 -5 -1 -5 -9 2 -11 9 -19 7 -38 -8 -28 -23 -21 -37 12 -21 19
9 43 16 97 27 8 2 20 4 25 5 29 6 73 -3 95 -20 21 -16 23 -21 11 -32 -8 -7
-11 -8 -8 -2 4 7 0 15 -8 18 -10 3 -15 1 -13 -7 5 -23 -27 -24 -36 -1 -5 14
-4 15 9 4 13 -11 14 -10 9 4 -7 17 -40 21 -62 7 -12 -7 -19 -26 -21 -57 -1 -6
-7 -11 -15 -11 -11 0 -12 6 -5 24 12 32 11 46 -1 38 -6 -4 -7 -11 -4 -17 5 -7
1 -9 -9 -5 -16 6 -23 -8 -18 -36 1 -5 -3 -6 -8 -3 -5 3 -7 16 -4 29 4 19 3 20
-7 5 -7 -12 -20 -16 -40 -13 -18 2 -28 0 -24 -6 3 -5 11 -9 17 -8 28 3 35 -2
30 -22 -4 -16 -8 -18 -14 -7 -7 11 -11 10 -19 -2 -8 -13 -10 -12 -10 3 0 11
-4 15 -12 11 -7 -4 -8 -3 -4 4 9 14 -4 15 -24 2 -10 -7 -11 -10 -2 -10 10 0
10 -4 0 -20 -7 -11 -19 -20 -26 -20 -7 0 -11 -4 -8 -8 8 -14 -28 -11 -44 4
-13 11 -15 9 -16 -10 -2 -21 2 -23 51 -22 29 1 53 -3 52 -8 -2 -8 7 -11 71
-17 17 -2 32 -7 32 -12 0 -5 8 -3 17 4 11 9 14 10 10 2 -9 -15 33 -28 63 -20
22 6 33 -15 17 -33 -10 -10 -8 -10 8 0 17 10 28 9 59 -4 25 -11 35 -20 30 -28
-5 -8 -1 -7 11 2 17 14 18 13 13 -12 -3 -15 -1 -25 3 -22 5 3 9 12 9 20 0 8 5
12 11 8 6 -3 8 -16 5 -28 -5 -20 -4 -20 9 -2 14 19 41 13 29 -6 -5 -7 -1 -9 9
-5 13 5 17 1 17 -14 0 -11 -4 -17 -10 -14 -5 3 -10 1 -10 -4 0 -15 23 -14 38
1 7 7 12 8 12 2 0 -5 5 -2 10 6 8 13 10 13 10 -2 0 -10 5 -15 14 -12 7 3 21
-7 30 -21 l17 -26 -38 16 c-21 9 -49 15 -63 14 -43 -2 -48 0 -44 24 2 12 1 16
-2 8 -5 -11 -8 -11 -15 0 -7 11 -9 10 -9 -3 0 -23 -11 -23 -66 2 -51 24 -159
37 -169 21 -3 -6 -15 -11 -26 -11 -10 0 -19 -7 -19 -16 0 -11 -8 -14 -32 -10
-46 6 -47 8 -9 15 38 7 51 25 26 35 -9 3 -14 2 -11 -3 3 -5 -8 -11 -24 -15
-27 -5 -30 -9 -24 -31 5 -20 2 -25 -12 -25 -16 0 -17 2 -4 10 8 5 10 10 4 10
-6 0 -14 -3 -18 -7 -7 -7 -15 -8 -76 -13 -47 -3 -52 -2 -75 16 -17 13 -18 16
-5 24 11 7 4 10 -25 10 -62 0 -120 24 -119 49 0 11 -3 18 -7 15 -13 -8 -59 15
-59 30 0 23 48 55 107 72 37 11 53 20 53 32 0 15 -2 15 -10 2 -9 -13 -10 -13
-10 0 0 8 9 21 21 28 12 7 19 16 16 18 -3 3 -16 -1 -29 -10 -22 -14 -26 -14
-44 0 -18 14 -18 15 4 4 12 -6 22 -8 22 -5 0 3 0 8 -1 11 0 3 11 14 25 25 30
23 35 51 9 47 -10 -2 -18 2 -18 9 0 6 -4 15 -9 20 -5 5 -6 2 -1 -6 5 -9 4 -12
-3 -7 -24 14 -12 28 18 21 19 -4 30 -3 30 4 0 21 -4 26 -18 23 -8 -2 -11 1 -7
7 4 7 -5 9 -24 7 -17 -2 -31 1 -31 6 0 6 8 8 19 5 10 -2 26 0 36 6 12 6 16 6
11 -1 -3 -5 1 -12 9 -16 8 -3 15 -1 15 4 0 13 37 13 45 -1 4 -6 1 -9 -7 -7 -7
2 -13 -1 -13 -7 0 -5 5 -9 12 -7 6 1 14 -2 18 -8 6 -10 -6 -14 -40 -10 -17 2
-18 0 -5 -16 9 -11 10 -15 3 -10 -9 4 -13 1 -13 -10 0 -15 2 -15 28 1 15 10
32 23 38 31 6 7 22 18 35 24 13 5 32 16 41 22 15 10 22 10 40 -1 18 -10 20
-10 11 0 -10 10 -5 17 25 34 20 12 44 21 52 19 8 -1 25 -3 38 -3z m-528 -5 c0
-2 -7 -6 -15 -10 -8 -3 -15 -1 -15 4 0 6 7 10 15 10 8 0 15 -2 15 -4z m265 -6
c4 -6 -1 -7 -11 -3 -13 5 -15 3 -9 -7 5 -9 4 -11 -4 -6 -6 4 -9 12 -6 17 8 12
22 12 30 -1z m-780 -10 c3 -5 1 -10 -4 -10 -6 0 -11 5 -11 10 0 6 2 10 4 10 3
0 8 -4 11 -10z m483 -31 c-3 -8 -7 -3 -11 10 -4 17 -3 21 5 13 5 -5 8 -16 6
-23z m48 4 c-5 -11 -2 -14 11 -9 16 5 16 5 2 -6 -9 -7 -17 -17 -17 -22 -2 -10
-32 -18 -32 -9 0 3 8 12 18 19 16 13 16 13 0 14 -10 0 -18 5 -18 10 0 6 6 9
13 8 6 -2 11 3 9 10 -1 8 2 11 8 7 6 -4 9 -14 6 -22z m591 21 c-3 -3 -12 -4
-19 -1 -8 3 -5 6 6 6 11 1 17 -2 13 -5z m-1087 -24 c0 -5 -5 -10 -11 -10 -5 0
-7 5 -4 10 3 6 8 10 11 10 2 0 4 -4 4 -10z m590 -33 c-10 -9 -11 -9 -5 1 4 9
0 15 -15 19 -15 4 -18 8 -9 13 7 5 19 2 27 -7 12 -11 12 -17 2 -26z m-629 10
c-10 -9 -11 -8 -5 6 3 10 9 15 12 12 3 -3 0 -11 -7 -18z m1243 -2 c4 -11 -1
-15 -17 -14 -12 0 -16 3 -9 6 6 2 10 9 6 14 -3 5 -1 9 4 9 6 0 12 -7 16 -15z
m-757 -17 c-3 -8 -6 -5 -6 6 -1 11 2 17 5 13 3 -3 4 -12 1 -19z m108 5 c18
-14 18 -15 2 -9 -10 3 -23 6 -28 6 -5 0 -9 5 -9 10 0 14 12 12 35 -7z m-170
-3 c-3 -5 -12 -10 -18 -10 -7 0 -6 4 3 10 19 12 23 12 15 0z m-351 -16 c3 -8
2 -12 -4 -9 -6 3 -10 10 -10 16 0 14 7 11 14 -7z m-69 -13 c3 -6 -2 -14 -11
-19 -9 -5 -15 -12 -15 -15 3 -19 -1 -23 -18 -23 -14 0 -17 4 -11 12 6 6 7 13
4 16 -3 3 7 9 23 12 21 6 24 9 12 17 -9 5 -9 9 -2 9 6 0 14 -4 18 -9z m144
-25 c0 -7 -2 -6 -6 2 -2 6 -11 12 -19 12 -9 0 -12 5 -9 10 8 13 35 -6 34 -24z
m557 -7 c3 -6 1 -16 -5 -22 -9 -9 -10 -7 -5 8 7 20 7 20 -17 0 -13 -11 -18
-13 -11 -5 14 17 16 34 2 25 -5 -3 -10 1 -10 10 0 12 4 14 19 5 11 -5 23 -15
27 -21z m441 16 c0 -8 -4 -15 -9 -15 -4 0 -8 7 -8 15 0 8 4 15 8 15 5 0 9 -7
9 -15z m-1072 -14 c-9 -8 -36 -10 -30 -2 2 4 11 8 20 8 8 0 13 -3 10 -6z m120
-20 c-3 -3 -10 1 -14 8 -6 9 -11 10 -15 2 -4 -6 -12 -11 -19 -11 -6 0 -2 6 9
14 13 10 23 11 32 4 7 -6 10 -13 7 -17z m-72 -2 c-8 -8 -13 -7 -18 2 -5 8 -4
10 3 5 7 -4 12 -2 12 5 0 7 3 9 7 6 4 -4 2 -12 -4 -18z m-103 -4 c0 -8 6 -12
13 -9 8 3 20 -2 27 -10 7 -9 16 -13 21 -10 5 3 9 -1 9 -10 0 -8 6 -17 13 -19
8 -4 9 -6 0 -6 -6 -1 -18 5 -26 13 -8 8 -30 19 -48 23 -35 9 -54 43 -25 43 9
0 16 -7 16 -15z m-250 -15 c0 -5 -9 -6 -20 -3 -11 3 -20 9 -20 13 0 5 9 6 20
3 11 -3 20 -9 20 -13z m87 14 c-3 -3 -12 -4 -19 -1 -8 3 -5 6 6 6 11 1 17 -2
13 -5z m-47 -32 c0 -10 -7 -19 -15 -19 -8 0 -15 9 -15 19 0 10 7 18 15 18 8 0
15 -8 15 -18z m345 8 c4 -6 3 -10 -2 -9 -20 3 -27 -2 -13 -11 8 -5 11 -12 7
-16 -9 -10 -17 -1 -22 25 -4 22 18 30 30 11z m-540 -9 c3 -5 2 -12 -3 -15 -5
-3 -9 1 -9 9 0 17 3 19 12 6z m612 -3 c13 -18 46 -94 37 -86 -4 4 -12 3 -19
-2 -8 -7 -12 -5 -12 5 0 8 5 15 10 15 6 0 8 2 5 5 -8 8 -39 -6 -33 -14 2 -4
-2 -8 -9 -8 -8 0 -12 7 -9 15 5 11 1 13 -17 7 -15 -5 -20 -4 -16 4 4 6 1 11
-6 11 -9 0 -9 3 2 10 8 5 22 9 30 9 10 0 8 -3 -4 -8 -19 -7 -18 -8 4 -14 35
-9 42 4 19 33 -12 14 -18 20 -15 14 3 -6 -1 -11 -9 -11 -11 0 -12 4 -4 14 14
16 34 17 46 1z m953 3 c0 -6 -5 -13 -10 -16 -6 -4 -7 -11 -4 -17 4 -7 2 -8 -5
-4 -9 6 -9 11 1 24 11 13 10 14 -7 5 -11 -6 -26 -8 -34 -5 -8 2 -11 0 -8 -5 4
-5 -7 -7 -26 -4 l-32 5 40 12 c49 15 85 17 85 5z m58 0 c11 -7 11 -9 -1 -14
-8 -3 -23 1 -34 8 -17 14 -17 14 2 15 11 0 26 -4 33 -9z m44 0 c-8 -4 -13 -12
-12 -17 1 -5 -3 -10 -8 -12 -6 -2 -8 6 -5 17 3 12 13 21 22 21 12 0 13 -2 3
-9z m-1429 -27 c-4 -11 -9 -12 -19 -3 -18 15 -18 14 5 16 14 1 18 -3 14 -13z
m1196 -20 c-6 -8 -14 -12 -17 -9 -3 3 -15 -3 -26 -12 -20 -17 -20 -17 -7 -1
12 17 11 18 -20 13 l-34 -5 30 11 c17 5 35 11 42 13 7 1 15 5 19 9 13 13 25
-5 13 -19z m-1160 -10 c-11 -14 -10 -16 11 -12 13 1 25 -3 27 -9 5 -15 -33
-18 -42 -4 -3 6 -14 8 -24 6 -10 -2 -18 3 -18 10 0 7 8 10 18 8 9 -3 20 0 23
6 4 6 10 11 13 11 3 0 -1 -7 -8 -16z m1316 6 c3 -5 2 -10 -4 -10 -5 0 -13 5
-16 10 -3 6 -2 10 4 10 5 0 13 -4 16 -10z m245 -9 c0 -5 14 -12 30 -16 17 -4
30 -13 30 -21 0 -8 5 -14 10 -14 6 0 10 -7 10 -15 0 -13 -4 -13 -27 2 -16 10
-31 22 -34 27 -4 5 -13 7 -21 4 -9 -4 -14 2 -16 18 -1 13 3 24 8 24 6 0 10 -4
10 -9z m-330 -5 c0 -2 -7 -7 -16 -10 -8 -3 -12 -2 -9 4 6 10 25 14 25 6z
m-1154 -29 c14 -1 37 -27 25 -27 -17 0 -26 4 -24 12 2 4 -6 6 -17 5 -11 -1
-20 -6 -20 -11 0 -5 -3 -7 -6 -4 -3 3 0 15 7 27 8 12 16 16 20 10 3 -6 10 -11
15 -12z m1171 8 c0 -8 -4 -12 -9 -9 -5 3 -6 10 -3 15 9 13 12 11 12 -6z m-637
-19 c0 -3 -4 -8 -10 -11 -5 -3 -10 -1 -10 4 0 6 5 11 10 11 6 0 10 -2 10 -4z
m690 -12 c0 -8 -19 -13 -24 -6 -3 5 1 9 9 9 8 0 15 -2 15 -3z m295 -34 c16
-16 24 -30 19 -30 -5 0 -15 9 -22 20 -7 11 -19 20 -27 20 -8 0 -15 5 -15 10 0
18 16 11 45 -20z m-948 -9 c2 -20 -41 -56 -56 -47 -5 3 -16 -5 -25 -19 -20
-30 -36 -32 -36 -5 0 14 7 20 21 20 11 0 18 4 15 9 -3 5 3 11 14 14 11 3 20 1
20 -5 0 -5 5 -6 10 -3 6 3 10 15 10 25 0 10 6 21 13 23 6 3 12 6 12 6 1 1 1
-8 2 -18z m1020 -11 c-1 -12 -5 -16 -10 -11 -5 5 -6 14 -3 20 11 16 15 13 13
-9z m-1163 -95 c18 -14 19 -15 2 -15 -10 0 -35 -18 -56 -40 -20 -22 -40 -37
-43 -34 -3 3 10 19 29 36 19 16 31 34 28 39 -6 10 3 29 14 29 4 0 16 -7 26
-15z m232 -43 c-10 -2 -22 0 -28 6 -6 6 0 7 19 4 21 -5 23 -7 9 -10z m604 -13
c0 -6 -4 -7 -10 -4 -5 3 -10 11 -10 16 0 6 5 7 10 4 6 -3 10 -11 10 -16z
m-167 -29 c-7 -27 -13 -25 -11 4 1 14 5 23 9 20 4 -2 5 -13 2 -24z m-828 -20
c4 -6 -1 -7 -11 -3 -13 5 -15 3 -9 -7 5 -9 4 -11 -4 -6 -6 4 -14 0 -17 -8 -3
-9 -16 -16 -28 -16 -21 1 -21 1 -1 15 11 8 25 19 30 24 13 13 32 14 40 1z m29
-15 c3 -9 0 -15 -9 -15 -9 0 -12 6 -9 15 4 8 7 15 9 15 2 0 5 -7 9 -15z m267
-12 c6 -15 2 -26 -12 -39 -16 -15 -19 -15 -14 -2 4 9 1 19 -6 24 -8 5 -10 3
-4 -7 5 -8 4 -10 0 -6 -11 9 -16 38 -8 49 9 15 35 4 44 -19z m-741 -35 c20 -7
22 -11 10 -18 -9 -6 -16 -6 -18 0 -2 6 -8 10 -13 10 -6 0 -7 -5 -3 -11 8 -13
-21 1 -51 26 -19 15 -18 16 15 9 19 -4 46 -11 60 -16z m370 -13 c-37 -28 -45
-31 -34 -14 3 6 0 15 -7 20 -11 7 -10 9 4 9 9 0 17 -5 17 -11 0 -6 7 -3 16 5
8 9 20 16 27 16 6 0 -4 -11 -23 -25z m-52 -36 c-3 -8 -7 -3 -11 10 -4 17 -3
21 5 13 5 -5 8 -16 6 -23z m-533 1 c-3 -5 -10 -10 -16 -10 -5 0 -9 5 -9 10 0
6 7 10 16 10 8 0 12 -4 9 -10z m2052 -33 c-1 -17 -6 -31 -12 -29 -9 2 -9 10
-6 58 2 30 19 3 18 -29z m-1563 17 c3 -8 2 -12 -3 -9 -6 3 -14 -3 -20 -12 -6
-10 -11 -13 -11 -6 0 8 -7 10 -17 6 -16 -6 -16 -4 1 15 22 26 41 28 50 6z
m1252 -12 c6 -16 7 -36 3 -47 -9 -20 -9 -20 -8 0 2 37 -1 44 -16 39 -15 -6
-21 16 -8 29 12 12 18 7 29 -21z m-1616 -32 c0 -3 -5 -12 -11 -20 -9 -12 -10
-12 -5 4 4 13 2 17 -7 13 -8 -3 -20 -1 -28 4 -12 8 -12 10 0 18 13 8 51 -6 51
-19z m920 -90 c0 -25 -38 43 -44 80 -5 33 -4 32 19 -15 14 -27 25 -57 25 -65z
m-670 68 c0 -16 -3 -19 -11 -11 -6 6 -8 16 -5 22 11 17 16 13 16 -11z m-320 2
c0 -5 -2 -10 -4 -10 -3 0 -8 5 -11 10 -3 6 -1 10 4 10 6 0 11 -4 11 -10z m95
0 c3 -5 -1 -10 -9 -10 -9 0 -16 5 -16 10 0 6 4 10 9 10 6 0 13 -4 16 -10z
m-67 -25 c-3 -3 -9 2 -12 12 -6 14 -5 15 5 6 7 -7 10 -15 7 -18z m337 15 c-3
-5 -12 -10 -18 -10 -7 0 -6 4 3 10 19 12 23 12 15 0z m305 -26 c0 -8 -4 -12
-10 -9 -5 3 -10 10 -10 16 0 5 5 9 10 9 6 0 10 -7 10 -16z m1190 -35 c0 -4 -7
-6 -15 -3 -8 4 -15 10 -15 15 0 4 7 6 15 3 8 -4 15 -10 15 -15z m30 6 c0 -8
-2 -15 -4 -15 -2 0 -6 7 -10 15 -3 8 -1 15 4 15 6 0 10 -7 10 -15z m-1201 -37
c1 -5 -3 -8 -8 -8 -12 0 -22 30 -14 43 6 10 20 -13 22 -35z m-689 12 c0 -5 -2
-10 -4 -10 -3 0 -8 5 -11 10 -3 6 -1 10 4 10 6 0 11 -4 11 -10z m310 1 c0 -5
-7 -12 -16 -15 -24 -9 -28 -7 -14 9 14 17 30 20 30 6z m1020 -1 c0 -5 -5 -10
-11 -10 -5 0 -7 5 -4 10 3 6 8 10 11 10 2 0 4 -4 4 -10z m-1349 -17 c13 -16
12 -17 -3 -4 -10 7 -18 15 -18 17 0 8 8 3 21 -13z m1472 -16 c-3 -16 -2 -18 5
-8 7 10 11 10 17 1 4 -6 -2 -20 -13 -30 -20 -18 -20 -18 -27 3 -4 12 -6 28 -6
35 1 6 -4 12 -11 13 -7 0 -4 4 7 8 27 11 34 5 28 -22z m-141 -1 c7 4 8 2 4 -4
-10 -16 -18 -15 -42 4 -16 13 -16 15 -1 10 9 -3 18 0 18 7 1 7 3 4 6 -6 2 -9
9 -14 15 -11z m528 14 c0 -5 -2 -10 -4 -10 -3 0 -8 5 -11 10 -3 6 -1 10 4 10
6 0 11 -4 11 -10z m35 0 c3 -5 1 -10 -4 -10 -6 0 -11 5 -11 10 0 6 2 10 4 10
3 0 8 -4 11 -10z m-1790 -9 c17 -7 16 -9 -11 -13 -21 -3 -31 0 -31 9 0 14 12
15 42 4z m170 -11 c3 -5 0 -10 -7 -11 -7 0 -21 -2 -30 -4 -20 -4 -24 11 -5 18
20 9 35 8 42 -3z m1722 -56 c2 -22 0 -52 -7 -69 -10 -27 -13 -28 -21 -12 -6 9
-14 15 -19 12 -4 -3 -6 4 -3 16 3 11 11 18 18 15 9 -3 11 8 8 41 -2 25 -6 51
-10 57 -3 6 2 4 11 -5 10 -9 20 -34 23 -55z m-1847 46 c0 -5 -4 -10 -10 -10
-5 0 -10 5 -10 10 0 6 5 10 10 10 6 0 10 -4 10 -10z m1755 0 c3 -5 1 -10 -4
-10 -6 0 -11 5 -11 10 0 6 2 10 4 10 3 0 8 -4 11 -10z m-1860 -10 c3 -5 -1
-10 -9 -10 -9 0 -16 -4 -16 -10 0 -5 -4 -10 -10 -10 -14 0 -12 27 3 33 19 8
25 8 32 -3z m70 -9 c-3 -6 -14 -11 -23 -11 -13 0 -13 -2 4 -15 19 -14 19 -15
-3 -21 -13 -3 -20 -10 -17 -15 3 -5 -6 -9 -20 -9 -27 0 -34 14 -14 26 7 4 8 3
4 -4 -4 -7 -2 -12 3 -12 6 0 11 13 11 29 0 28 22 47 41 35 5 -3 9 0 9 7 0 7 3
10 6 6 3 -3 3 -10 -1 -16z m-242 -2 c9 7 12 -20 11 -107 0 -65 4 -122 8 -129
5 -6 5 -14 -1 -17 -10 -6 -25 10 -26 29 -3 31 -18 85 -25 85 -13 0 -2 -99 15
-132 8 -17 13 -33 11 -35 -2 -2 -16 20 -30 49 -35 72 -37 155 -5 221 13 27 25
43 27 37 3 -7 8 -7 15 -1z m1639 -14 c-5 -26 -16 -32 -27 -15 -7 11 11 40 25
40 4 0 5 -11 2 -25z m377 -30 c0 -5 -4 -3 -9 5 -5 8 -9 22 -9 30 0 16 17 -16
18 -35z m-265 -151 c20 -8 21 -21 1 -21 -8 0 -15 5 -15 11 0 5 -6 1 -14 -10
-16 -21 -32 -14 -23 11 7 16 25 19 51 9z m381 -15 c-4 -5 -12 -9 -18 -8 -9 0
-8 2 1 6 6 2 9 10 6 15 -4 7 -2 8 5 4 6 -4 9 -12 6 -17z m-325 -10 c0 -5 4 -7
10 -4 6 3 7 -1 4 -10 -5 -11 -10 -13 -17 -6 -5 5 -16 7 -23 4 -10 -4 -12 0 -8
11 7 18 34 22 34 5z m-961 -34 c2 -2 1 -11 -3 -20 -8 -21 -25 -15 -45 15 -15
23 -15 23 14 16 17 -4 32 -9 34 -11z m1269 -10 c-3 -3 -9 2 -12 12 -6 14 -5
15 5 6 7 -7 10 -15 7 -18z m-38 -25 c0 -5 -5 -10 -11 -10 -5 0 -7 5 -4 10 3 6
8 10 11 10 2 0 4 -4 4 -10z m38 -90 c-8 -69 -21 -104 -50 -132 -31 -32 -40
-19 -11 17 20 24 30 48 32 77 1 23 4 45 7 50 3 4 0 8 -5 8 -6 0 -11 5 -11 11
0 5 5 7 12 3 7 -5 9 -1 6 12 -3 14 0 20 11 20 15 0 16 -9 9 -66z m-58 -1 c0
-6 -24 -19 -36 -19 -2 0 -4 6 -4 14 0 9 9 14 20 13 11 -1 20 -4 20 -8z m-584
-22 c3 -23 -3 -21 -17 4 -8 17 -8 20 2 17 7 -2 13 -12 15 -21z m533 -49 c-9
-17 -6 -58 5 -76 2 -4 -5 -14 -16 -21 -20 -12 -20 -12 -14 43 5 38 4 56 -3 56
-6 0 -11 4 -11 9 0 5 9 7 20 4 16 -4 19 -2 14 13 -5 15 -4 16 4 5 7 -10 7 -21
1 -33z m-50 -112 c-9 -8 -10 -7 -5 7 3 10 7 24 7 30 1 7 3 4 6 -7 3 -10 -1
-23 -8 -30z m176 -53 c1 -22 -3 -37 -11 -40 -8 -3 -11 -9 -8 -14 3 -6 0 -16
-6 -25 -7 -8 -20 -28 -30 -46 -9 -17 -24 -32 -34 -34 -17 -2 -16 -1 2 19 25
28 53 84 51 100 -1 6 1 34 6 61 6 38 10 45 17 32 5 -10 11 -33 13 -53z m-337
38 c11 -6 11 -10 0 -18 -9 -8 -21 -7 -43 3 -22 10 -24 13 -7 10 12 -2 22 0 22
5 0 11 11 11 28 0z m-80 -13 c-3 -13 -36 -37 -51 -38 -5 0 -1 7 7 16 9 8 16
20 16 25 0 5 7 9 15 9 8 0 14 -6 13 -12z m314 -45 c-6 -3 -9 -10 -5 -16 4 -7
-1 -6 -10 2 -14 11 -15 17 -6 28 9 10 15 11 23 2 8 -8 8 -13 -2 -16z m-392 7
c0 -5 -2 -10 -4 -10 -3 0 -8 5 -11 10 -3 6 -1 10 4 10 6 0 11 -4 11 -10z
m-630 -60 c0 -5 -2 -10 -4 -10 -3 0 -8 5 -11 10 -3 6 -1 10 4 10 6 0 11 -4 11
-10z m420 -101 c0 -4 -7 -6 -15 -3 -8 4 -15 10 -15 15 0 4 7 6 15 3 8 -4 15
-10 15 -15z m610 -5 c0 -8 -19 -13 -24 -6 -3 5 1 9 9 9 8 0 15 -2 15 -3z
m-781 -54 c6 -18 6 -28 1 -25 -6 4 -10 13 -10 21 0 8 -4 12 -10 9 -6 -3 -7 1
-4 9 8 22 11 20 23 -14z m541 -36 c0 -18 -8 -18 -26 0 -10 11 -11 15 -1 19 16
6 27 -1 27 -19z m-65 -6 c11 -11 -46 -39 -67 -32 -19 6 -19 7 7 24 26 17 48
20 60 8z m155 -59 c0 -5 -4 -9 -10 -9 -5 0 -10 7 -10 16 0 8 5 12 10 9 6 -3
10 -10 10 -16z m-14 -45 c-4 -9 -9 -15 -11 -12 -3 3 -3 13 1 22 4 9 9 15 11
12 3 -3 3 -13 -1 -22z m-405 -70 c12 -14 11 -16 -5 -13 -11 2 -21 10 -24 17
-5 17 13 15 29 -4z m163 -165 c-6 -11 -24 -2 -24 11 0 5 7 7 15 4 8 -4 12 -10
9 -15z m136 -86 c0 -10 -38 -73 -53 -88 -17 -17 -77 -36 -77 -24 0 5 4 9 8 9
22 0 97 92 85 104 -3 3 3 6 15 6 12 0 22 -3 22 -7z"/>
<path d="M2210 2742 c0 -5 7 -9 15 -9 8 0 12 4 9 9 -3 4 -9 8 -15 8 -5 0 -9
-4 -9 -8z"/>
<path d="M2225 2680 c-3 -5 1 -10 10 -10 9 0 13 5 10 10 -3 6 -8 10 -10 10 -2
0 -7 -4 -10 -10z"/>
<path d="M2375 2359 c-11 -17 1 -21 15 -4 8 9 8 15 2 15 -6 0 -14 -5 -17 -11z"/>
<path d="M2393 2273 c0 -9 4 -10 14 -2 7 6 13 12 13 14 0 1 -6 2 -13 2 -8 0
-14 -6 -14 -14z"/>
<path d="M2437 2284 c-3 -4 1 -13 9 -21 19 -20 26 -13 10 9 -7 10 -16 15 -19
12z"/>
<path d="M2430 2241 c0 -10 30 -24 37 -17 3 2 -5 9 -16 16 -12 6 -21 7 -21 1z"/>
<path d="M3080 2443 c0 -8 -4 -12 -9 -8 -5 3 -13 0 -17 -6 -4 -8 -3 -9 4 -5 7
4 12 1 12 -7 0 -8 6 -20 13 -26 11 -8 16 -5 26 15 10 23 14 24 29 13 15 -12
15 -11 -1 8 -23 27 -57 37 -57 16z"/>
<path d="M3054 2381 c4 -5 1 -12 -4 -14 -6 -3 -5 -4 2 -3 15 3 23 26 8 26 -6
0 -9 -4 -6 -9z"/>
<path d="M3015 2370 c-3 -5 -1 -10 4 -10 6 0 11 5 11 10 0 6 -2 10 -4 10 -3 0
-8 -4 -11 -10z"/>
<path d="M3006 2315 c-11 -8 -15 -15 -9 -15 6 0 16 7 23 15 16 19 11 19 -14 0z"/>
<path d="M2951 2229 c-13 -10 -19 -19 -15 -19 13 1 48 29 43 34 -2 2 -15 -4
-28 -15z"/>
<path d="M2790 2226 c0 -2 7 -7 16 -10 8 -3 12 -2 9 4 -6 10 -25 14 -25 6z"/>
<path d="M2828 2202 c-30 -6 -20 -17 14 -16 18 0 33 5 33 9 0 10 -20 13 -47 7z"/>
<path d="M3040 2141 c0 -7 -4 -9 -10 -6 -5 3 -10 2 -10 -4 0 -5 -3 -18 -7 -28
-4 -12 0 -10 15 7 20 24 22 24 38 8 11 -11 14 -18 6 -18 -7 0 -12 -6 -12 -14
0 -8 -5 -16 -11 -18 -7 -2 -10 -8 -8 -13 2 -6 16 2 30 17 l26 27 -28 27 c-16
15 -29 22 -29 15z"/>
<path d="M2650 2104 c0 -8 5 -12 10 -9 6 3 10 10 10 16 0 5 -4 9 -10 9 -5 0
-10 -7 -10 -16z"/>
<path d="M3210 2043 c0 -5 11 -8 24 -8 13 0 22 3 19 8 -2 4 -13 7 -24 7 -10 0
-19 -3 -19 -7z"/>
<path d="M3320 2010 c0 -5 5 -10 11 -10 5 0 7 5 4 10 -3 6 -8 10 -11 10 -2 0
-4 -4 -4 -10z"/>
<path d="M2945 2000 c-3 -5 -1 -10 4 -10 6 0 11 5 11 10 0 6 -2 10 -4 10 -3 0
-8 -4 -11 -10z"/>
<path d="M2855 1980 c3 -5 16 -10 28 -10 18 0 19 2 7 10 -20 13 -43 13 -35 0z"/>
<path d="M1758 1493 c7 -3 16 -2 19 1 4 3 -2 6 -13 5 -11 0 -14 -3 -6 -6z"/>
<path d="M1590 2885 c-168 -33 -347 -145 -455 -283 -98 -125 -169 -307 -163
-415 3 -51 3 -51 43 -60 58 -13 224 -3 239 14 7 8 18 39 25 70 31 148 124 268
256 330 44 21 103 43 130 50 28 6 56 19 63 27 15 20 17 234 2 263 -13 22 -44
23 -140 4z"/>
<path d="M2980 2729 c0 -17 3 -18 20 -9 11 6 20 12 20 14 0 2 -9 6 -20 9 -15
4 -20 0 -20 -14z"/>
<path d="M2851 2724 c-7 -8 -20 -13 -28 -9 -13 4 -14 3 -4 -9 10 -12 8 -13
-10 -9 -13 4 -20 2 -16 -4 3 -5 0 -10 -9 -10 -9 0 -12 7 -8 19 4 13 1 16 -10
12 -9 -3 -13 -10 -10 -15 3 -5 -2 -6 -11 -3 -11 5 -18 0 -22 -14 -4 -17 -8
-18 -18 -9 -7 7 -10 16 -7 21 3 5 0 6 -7 2 -6 -4 -9 -12 -5 -17 3 -6 -2 -9
-12 -7 -23 4 -27 -33 -4 -40 12 -4 13 -2 3 9 -22 23 -14 31 9 9 23 -21 44 -27
33 -10 -3 6 -1 10 4 10 6 0 11 -7 11 -15 0 -8 -6 -15 -12 -15 -9 0 -8 -4 2
-10 10 -7 11 -10 2 -10 -7 0 -15 6 -18 14 -3 8 -13 12 -25 9 -10 -3 -26 0 -34
7 -8 7 -15 8 -15 2 0 -5 -10 -9 -23 -9 -15 0 -23 6 -24 18 -1 11 2 17 7 14 5
-3 12 0 16 6 4 8 3 9 -4 5 -7 -4 -12 -2 -12 3 0 6 -5 11 -11 11 -5 0 -8 -4 -5
-9 3 -5 -1 -11 -9 -15 -8 -3 -15 0 -15 6 0 25 -12 -3 -14 -32 -2 -33 10 -51
20 -27 3 8 16 14 28 13 14 0 22 -6 19 -13 -3 -7 -9 -11 -13 -8 -4 3 -13 -2
-20 -10 -10 -12 -10 -18 1 -31 11 -14 14 -13 25 8 8 13 13 18 14 11 0 -6 8
-10 18 -9 24 4 72 -14 72 -26 0 -7 -5 -6 -14 1 -7 6 -24 10 -37 7 -13 -2 -30
1 -36 6 -9 7 -13 7 -13 0 0 -12 55 -33 64 -25 3 3 12 0 21 -7 8 -7 15 -9 15
-4 0 5 4 3 8 -4 5 -7 27 -14 50 -17 23 -2 40 0 37 5 -3 4 -15 6 -27 2 -12 -3
-19 -1 -15 5 3 5 -4 9 -16 9 -13 -1 -23 6 -25 16 -2 13 1 16 12 12 9 -3 13
-11 9 -18 -4 -7 -2 -7 7 1 9 9 19 9 34 2 21 -10 21 -10 1 6 -20 15 -19 16 3
21 25 7 30 24 6 24 -8 0 -12 4 -9 10 3 5 0 7 -8 4 -8 -3 -18 -1 -21 5 -7 10
58 81 74 81 5 0 16 7 24 16 9 8 16 11 16 6 0 -6 8 -9 18 -8 9 2 28 -4 42 -13
23 -15 24 -15 12 1 -12 15 -11 17 9 13 12 -3 27 -10 33 -16 8 -9 8 -10 -1 -5
-7 4 -13 2 -13 -3 0 -16 -36 -13 -50 3 -13 17 -43 10 -33 -8 4 -6 -1 -5 -10 3
-18 14 -24 2 -7 -15 6 -6 3 -10 -10 -10 -11 0 -20 5 -20 10 0 6 -5 5 -12 -2
-9 -9 -6 -17 12 -37 21 -22 25 -23 39 -10 11 9 21 11 31 5 23 -15 37 -11 18 4
-10 7 -18 21 -18 30 0 19 4 20 31 5 13 -6 25 -7 32 -1 7 5 20 8 30 7 10 -2 30
3 45 11 15 8 23 14 17 14 -5 1 6 9 25 20 l35 18 -31 0 c-17 -1 -36 2 -42 5 -5
4 -13 0 -16 -9 -4 -10 -2 -13 7 -8 7 4 7 1 -2 -7 -10 -11 -15 -11 -18 -1 -3 6
-9 12 -14 12 -6 0 -7 -4 -4 -10 3 -5 1 -10 -4 -10 -6 0 -11 5 -11 11 0 5 -5 7
-11 3 -7 -4 -9 0 -5 12 4 15 1 19 -18 19 -13 0 -22 -3 -20 -6 2 -4 -3 -9 -11
-13 -8 -3 -15 0 -15 6 0 7 -5 6 -15 -2 -13 -11 -14 -10 -9 4 8 20 -7 20 -25 0z
m-86 -54 c4 -6 -1 -7 -11 -3 -13 5 -15 3 -9 -7 5 -9 4 -11 -4 -6 -6 4 -9 12
-6 17 8 12 22 12 30 -1z m-75 -70 c0 -5 -7 -7 -15 -4 -8 4 -21 1 -29 -5 -10
-9 -15 -8 -19 1 -3 9 7 14 29 15 19 2 34 -1 34 -7z m74 -41 c-10 -16 -42 -9
-47 10 -4 17 -2 18 24 9 16 -5 26 -14 23 -19z m-174 17 c0 -3 -4 -8 -10 -11
-5 -3 -10 -1 -10 4 0 6 5 11 10 11 6 0 10 -2 10 -4z m104 -5 c4 -5 -3 -7 -14
-4 -23 6 -26 13 -6 13 8 0 17 -4 20 -9z"/>
<path d="M2468 2665 c-4 -20 -2 -23 8 -14 7 6 10 17 7 25 -7 20 -10 18 -15
-11z"/>
<path d="M3073 2675 c0 -7 6 -11 14 -8 7 3 13 6 13 8 0 2 -6 5 -13 8 -8 3 -14
-1 -14 -8z"/>
<path d="M2420 2649 c0 -5 5 -7 10 -4 6 3 10 8 10 11 0 2 -4 4 -10 4 -5 0 -10
-5 -10 -11z"/>
<path d="M3025 2650 c-4 -6 3 -10 14 -10 25 0 27 6 6 13 -8 4 -17 2 -20 -3z"/>
<path d="M2777 2637 c-13 -35 119 -97 139 -65 4 6 3 8 -3 5 -6 -4 -14 0 -17 8
-4 11 -11 13 -23 7 -17 -8 -68 8 -59 19 2 2 -4 12 -14 22 -14 14 -19 15 -23 4z"/>
<path d="M2969 2643 c-1 -5 -1 -12 0 -16 1 -5 -9 -5 -21 -2 -13 4 -20 4 -16 0
4 -4 22 -9 40 -11 27 -3 30 -1 15 7 -9 6 -15 14 -12 20 4 5 4 9 1 9 -3 0 -7
-3 -7 -7z"/>
<path d="M2413 2605 c0 -8 4 -15 9 -15 4 0 8 4 8 9 0 6 -4 12 -8 15 -5 3 -9
-1 -9 -9z"/>
<path d="M2940 2595 c0 -2 9 -9 19 -15 14 -7 22 -7 27 2 4 6 3 8 -4 4 -6 -3
-13 -2 -17 4 -6 10 -25 14 -25 5z"/>
<path d="M2521 2557 c-8 -10 -7 -14 2 -14 8 0 14 6 14 14 0 7 -1 13 -2 13 -2
0 -8 -6 -14 -13z"/>
<path d="M2816 2536 c10 -8 21 -12 24 -10 5 6 -21 24 -34 24 -6 0 -1 -6 10
-14z"/>
<path d="M2024 2433 c3 -6 2 -14 -4 -18 -5 -3 -10 0 -10 7 0 10 -3 9 -9 -2
-12 -17 -7 -26 17 -32 13 -4 17 1 17 18 -1 13 -5 27 -10 31 -4 5 -5 3 -1 -4z"/>
<path d="M1910 2362 c0 -5 14 -12 30 -14 33 -5 28 6 -7 17 -13 3 -23 2 -23 -3z"/>
<path d="M3540 2260 c0 -5 -7 -10 -17 -10 -21 0 -12 -9 15 -15 15 -3 20 1 19
16 -1 19 -17 28 -17 9z"/>
<path d="M1760 2197 c0 -9 4 -18 9 -21 5 -4 8 1 7 9 -3 21 -16 31 -16 12z"/>
<path d="M1528 2163 c-28 -7 -21 -21 7 -15 14 2 22 8 19 13 -3 5 -6 8 -7 8 -1
-1 -10 -3 -19 -6z"/>
<path d="M1480 2150 c0 -5 5 -10 10 -10 6 0 10 5 10 10 0 6 -4 10 -10 10 -5 0
-10 -4 -10 -10z"/>
<path d="M1635 2100 c3 -5 8 -10 11 -10 2 0 4 5 4 10 0 6 -5 10 -11 10 -5 0
-7 -4 -4 -10z"/>
<path d="M1820 2096 c0 -2 7 -7 16 -10 8 -3 12 -2 9 4 -6 10 -25 14 -25 6z"/>
<path d="M1632 2040 c-52 -50 -71 -79 -92 -139 -10 -25 -20 -54 -25 -63 -7
-17 -5 -17 21 -3 16 8 35 15 42 15 6 0 12 5 12 10 0 6 11 10 24 10 14 0 28 5
32 12 4 7 3 8 -5 4 -6 -4 -21 -4 -33 0 -18 5 -19 8 -5 15 9 6 26 5 41 -1 17
-6 26 -6 26 0 0 6 -4 10 -8 10 -5 0 -9 7 -9 15 0 19 11 19 27 0 9 -11 16 -12
26 -4 9 7 19 6 37 -6 17 -11 27 -13 32 -6 3 6 1 11 -6 11 -10 0 -10 3 -1 12
15 15 15 28 1 28 -5 0 -7 -6 -3 -12 6 -10 5 -10 -8 -1 -8 7 -19 9 -23 5 -5 -4
-5 -1 -1 6 4 6 4 12 1 12 -9 0 -36 -28 -33 -34 2 -2 0 -7 -3 -11 -4 -3 -9 1
-12 9 -3 8 1 17 9 20 8 3 14 10 14 15 0 15 -30 22 -51 10 -19 -10 -19 -9 -9
10 12 24 33 27 49 7 9 -11 81 -29 81 -20 0 2 -8 11 -17 20 -17 17 -17 17 2 10
11 -5 31 -8 45 -7 65 6 77 6 105 -1 28 -7 29 -6 11 7 -11 8 -24 15 -29 15 -4
0 -5 5 -2 10 3 6 1 10 -6 10 -10 0 -10 3 -1 12 15 15 15 28 1 28 -5 0 -7 -4
-4 -10 3 -5 -6 -15 -20 -22 -22 -10 -28 -9 -36 3 -5 8 -9 10 -9 4 0 -5 -4 -4
-9 4 -5 8 -11 9 -15 3 -3 -6 2 -13 13 -17 11 -3 22 -12 25 -21 4 -12 2 -12
-14 -4 -11 6 -20 7 -20 3 0 -4 -4 -2 -8 5 -10 14 -52 26 -95 25 -20 0 -26 4
-23 13 8 20 4 18 -42 -26z m143 -12 c3 -2 -1 -6 -7 -7 -72 -10 -102 -6 -77 10
14 9 75 7 84 -3z m105 -3 c0 -9 -6 -12 -15 -9 -8 4 -12 10 -9 15 8 14 24 10
24 -6z"/>
<path d="M2095 2020 c-3 -6 1 -7 9 -4 18 7 21 14 7 14 -6 0 -13 -4 -16 -10z"/>
<path d="M1955 2000 c3 -5 8 -10 11 -10 2 0 4 5 4 10 0 6 -5 10 -11 10 -5 0
-7 -4 -4 -10z"/>
<path d="M1844 1973 c2 -13 -1 -23 -7 -23 -6 0 -8 -2 -5 -5 3 -3 17 -1 31 4
17 7 28 7 32 1 4 -6 11 -10 18 -10 17 0 -26 29 -45 30 -9 0 -19 6 -22 13 -4 6
-4 2 -2 -10z"/>
<path d="M1960 1970 c0 -5 5 -10 11 -10 5 0 7 5 4 10 -3 6 -8 10 -11 10 -2 0
-4 -4 -4 -10z"/>
<path d="M2000 1966 c0 -3 9 -10 20 -16 11 -6 20 -8 20 -6 0 3 -9 10 -20 16
-11 6 -20 8 -20 6z"/>
<path d="M1880 1932 c0 -15 28 -23 36 -9 4 7 4 9 -1 5 -4 -4 -14 -3 -22 3 -8
7 -13 8 -13 1z"/>
<path d="M3730 1851 c5 -11 15 -23 21 -27 6 -3 3 5 -6 20 -20 30 -30 35 -15 7z"/>
<path d="M1600 1849 c0 -5 5 -7 10 -4 6 3 10 8 10 11 0 2 -4 4 -10 4 -5 0 -10
-5 -10 -11z"/>
<path d="M1996 1825 c-4 -11 1 -15 17 -14 12 0 16 3 9 6 -6 2 -10 9 -6 14 3 5
1 9 -4 9 -6 0 -12 -7 -16 -15z"/>
<path d="M1841 1761 c-7 -5 -2 -12 15 -20 33 -15 39 -10 15 11 -10 9 -24 12
-30 9z"/>
<path d="M1871 1767 c2 -1 13 -9 24 -17 19 -14 19 -14 6 3 -7 9 -18 17 -24 17
-6 0 -8 -1 -6 -3z"/>
<path d="M3765 1760 c-3 -5 -1 -10 4 -10 6 0 11 5 11 10 0 6 -2 10 -4 10 -3 0
-8 -4 -11 -10z"/>
<path d="M1785 1740 c3 -5 11 -10 16 -10 6 0 7 5 4 10 -3 6 -11 10 -16 10 -6
0 -7 -4 -4 -10z"/>
<path d="M3767 1687 c-10 -27 -8 -60 4 -77 9 -13 10 -13 6 1 -3 9 -2 20 2 25
4 5 5 23 1 39 -4 25 -7 27 -13 12z"/>
<path d="M1834 1661 c3 -5 16 -11 28 -14 22 -6 22 -5 4 8 -22 17 -40 20 -32 6z"/>
<path d="M3515 400 c-3 -5 -1 -10 4 -10 6 0 11 5 11 10 0 6 -2 10 -4 10 -3 0
-8 -4 -11 -10z"/>
</g>
</svg>
